<?xml version="1.0" encoding="UTF-8" standalone="no"?>
<svg
   width="700pt"
   height="544.69983pt"
   version="1.1"
   viewBox="0 0 700 544.69983"
   id="svg147"
   xmlns="http://www.w3.org/2000/svg"
   xmlns:svg="http://www.w3.org/2000/svg">
  <defs
     id="defs71">
    <symbol
       id="w"
       overflow="visible">
      <path
         d="M 12.812,-0.76562 C 12.15575,-0.42187 11.4682,-0.16406 10.7495,0 c -0.71875,0.17578 -1.4688,0.26562 -2.25,0.26562 -2.3125,0 -4.1523,-0.64453 -5.5156,-1.9375 -1.3555,-1.3008 -2.0312,-3.0625 -2.0312,-5.2812 0,-2.2266 0.67578,-3.9883 2.0312,-5.2812 1.3633,-1.3008 3.2031,-1.9531 5.5156,-1.9531 0.78125,0 1.5312,0.08984 2.25,0.26562 0.71875,0.16797 1.4062,0.42188 2.0625,0.76562 v 2.8906 c -0.66797,-0.45703 -1.3242,-0.78906 -1.9688,-1 -0.64844,-0.21875 -1.3281,-0.32812 -2.0469,-0.32812 -1.2812,0 -2.293,0.41406 -3.0312,1.2344 -0.73047,0.82422 -1.0938,1.9609 -1.0938,3.4062 0,1.4375 0.36328,2.5703 1.0938,3.3906 0.73828,0.82422 1.75,1.2344 3.0312,1.2344 0.71875,0 1.3984,-0.10156 2.0469,-0.3125 0.64453,-0.21875 1.3008,-0.55469 1.9688,-1.0156 z"
         id="path2" />
    </symbol>
    <symbol
       id="b"
       overflow="visible">
      <path
         d="M 9.375,-7.6094 C 9.08203,-7.74221 8.78906,-7.84378 8.5,-7.90628 8.20703,-7.976592 7.91406,-8.01566 7.625,-8.01566 c -0.85547,0 -1.5156,0.27734 -1.9844,0.82812 -0.46094,0.55469 -0.6875,1.3438 -0.6875,2.375 V -4e-5 H 1.6093 v -10.453 h 3.3438 v 1.7188 c 0.42578,-0.6875 0.91406,-1.1875 1.4688,-1.5 0.5625,-0.32031 1.2344,-0.48438 2.0156,-0.48438 0.10156,0 0.22266,0.0078 0.35938,0.01563 0.13281,0.01172 0.32031,0.03125 0.5625,0.0625 z"
         id="path5" />
    </symbol>
    <symbol
       id="a"
       overflow="visible">
      <path
         d="m 12.047,-5.25 v 0.9375 H 4.2345 c 0.082031,0.79297 0.36328,1.3867 0.84375,1.7812 0.48828,0.38672 1.1641,0.57812 2.0312,0.57812 0.70703,0 1.4297,-0.10156 2.1719,-0.3125 0.73828,-0.20703 1.4922,-0.52344 2.2656,-0.95312 v 2.5781 c -0.79297,0.30469 -1.5859,0.52734 -2.375,0.67188 -0.78125,0.15625 -1.5703,0.23438 -2.3594,0.23438 -1.8984,0 -3.3711,-0.47656 -4.4219,-1.4375 -1.043,-0.95703 -1.5625,-2.3047 -1.5625,-4.0469 0,-1.707 0.50781,-3.0508 1.5312,-4.0312 1.0312,-0.97656 2.4531,-1.4688 4.2656,-1.4688 1.6445,0 2.957,0.5 3.9375,1.5 0.98828,0.99219 1.4844,2.3125 1.4844,3.9688 z M 8.6095,-6.375 c 0,-0.63281 -0.1875,-1.1445 -0.5625,-1.5312 -0.36719,-0.38281 -0.84375,-0.57812 -1.4375,-0.57812 -0.65625,0 -1.1875,0.18359 -1.5938,0.54688 -0.39844,0.36719 -0.64844,0.88672 -0.75,1.5625 z"
         id="path8" />
    </symbol>
    <symbol
       id="k"
       overflow="visible">
      <path
         d="m 6.2969,-4.7031 c -0.69922,0 -1.2266,0.12109 -1.5781,0.35938 -0.35547,0.23047 -0.53125,0.57422 -0.53125,1.0312 0,0.42969 0.14062,0.76172 0.42188,1 0.28906,0.24219 0.6875,0.35938 1.1875,0.35938 0.63281,0 1.1641,-0.22266 1.5938,-0.67188 0.42578,-0.45703 0.64062,-1.0234 0.64062,-1.7031 v -0.375 z m 5.1094,-1.2656 V 10e-5 H 8.0313 V -1.5468 C 7.58208,-0.91008 7.07818,-0.4452 6.5157,-0.1562 5.9532,0.12505 5.2696,0.26568 4.4688,0.26568 c -1.0859,0 -1.9648,-0.3125 -2.6406,-0.9375 -0.66797,-0.63281 -1,-1.457 -1,-2.4688 0,-1.2266 0.42188,-2.1289 1.2656,-2.7031 0.84375,-0.57031 2.1641,-0.85938 3.9688,-0.85938 h 1.9688 v -0.25 c 0,-0.53125 -0.21094,-0.91406 -0.625,-1.1562 -0.41797,-0.25 -1.0703,-0.375 -1.9531,-0.375 -0.71875,0 -1.3867,0.074219 -2,0.21875 -0.61719,0.13672 -1.1875,0.35156 -1.7188,0.64062 v -2.5469 c 0.71875,-0.17578 1.4375,-0.3125 2.1562,-0.40625 0.72656,-0.09375 1.4531,-0.14062 2.1719,-0.14062 1.8828,0 3.2422,0.375 4.0781,1.125 0.84375,0.74219 1.2656,1.9492 1.2656,3.625 z"
         id="path11" />
    </symbol>
    <symbol
       id="c"
       overflow="visible">
      <path
         d="m 5.25,-13.422 v 2.9688 h 3.4531 v 2.3906 H 5.25 v 4.4375 c 0,0.48047 0.097656,0.80859 0.29688,0.98438 0.19531,0.16797 0.58203,0.25 1.1562,0.25 h 1.7031 v 2.3906 h -2.8594 c -1.3242,0 -2.2617,-0.27344 -2.8125,-0.82812 -0.54297,-0.55078 -0.8125,-1.4844 -0.8125,-2.7969 v -4.4375 h -1.6719 v -2.3906 h 1.6719 v -2.9688 z"
         id="path14" />
    </symbol>
    <symbol
       id="j"
       overflow="visible">
      <path
         d="m 8.7188,-8.9219 v -5.6094 h 3.3594 V -3e-4 H 8.7188 V -1.5159 C 8.25786,-0.89871 7.75396,-0.4456 7.2032,-0.1565 6.64851,0.12475 6.0079,0.26538 5.2813,0.26538 c -1.293,0 -2.3555,-0.50781 -3.1875,-1.5312 -0.82422,-1.0195 -1.2344,-2.3359 -1.2344,-3.9531 0,-1.6133 0.41016,-2.9297 1.2344,-3.9531 0.83203,-1.0312 1.8945,-1.5469 3.1875,-1.5469 0.71875,0 1.3516,0.14844 1.9062,0.4375 0.5625,0.29297 1.0703,0.74609 1.5312,1.3594 z m -2.2031,6.7656 c 0.71875,0 1.2656,-0.25781 1.6406,-0.78125 0.375,-0.51953 0.5625,-1.2812 0.5625,-2.2812 0,-1 -0.1875,-1.7578 -0.5625,-2.2812 -0.375,-0.51953 -0.92188,-0.78125 -1.6406,-0.78125 -0.71094,0 -1.25,0.26172 -1.625,0.78125 -0.375,0.52344 -0.5625,1.2812 -0.5625,2.2812 0,1 0.1875,1.7617 0.5625,2.2812 0.375,0.52344 0.91406,0.78125 1.625,0.78125 z"
         id="path17" />
    </symbol>
    <symbol
       id="i"
       overflow="visible">
      <path
         d="m 7.1719,-2.1562 c 0.71875,0 1.2656,-0.25781 1.6406,-0.78125 0.375,-0.51953 0.5625,-1.2812 0.5625,-2.2812 0,-1 -0.1875,-1.7578 -0.5625,-2.2812 -0.375,-0.51953 -0.92188,-0.78125 -1.6406,-0.78125 -0.71872,0 -1.2734,0.26562 -1.6562,0.79688 -0.375,0.52344 -0.5625,1.2773 -0.5625,2.2656 0,0.99219 0.1875,1.75 0.5625,2.2812 0.38281,0.52344 0.9375,0.78125 1.6562,0.78125 z M 4.9531,-8.9218 c 0.45703,-0.61328 0.96875,-1.0664 1.5312,-1.3594 0.5625,-0.28906 1.2031,-0.4375 1.9219,-0.4375 1.2891,0 2.3477,0.51562 3.1719,1.5469 0.83203,1.0234 1.25,2.3398 1.25,3.9531 0,1.6172 -0.41797,2.9336 -1.25,3.9531 C 10.75388,-0.2422 9.6953,0.2656 8.4062,0.2656 7.68745,0.2656 7.0468,0.12498 6.4843,-0.15628 5.9218,-0.44534 5.4101,-0.89847 4.9531,-1.51568 V -8e-5 H 1.6093 v -14.531 h 3.3438 z"
         id="path20" />
    </symbol>
    <symbol
       id="h"
       overflow="visible">
      <path
         d="m 0.23438,-10.453 h 3.3438 l 2.8125,7.0938 2.3906,-7.0938 h 3.3438 L 7.71888,0.985 C 7.28138,2.1491 6.76576,2.9616 6.17198,3.4225 5.58604,3.89125 4.81258,4.12562 3.84388,4.12562 h -1.9219 v -2.1875 h 1.0312 c 0.57031,0 0.98438,-0.09375 1.2344,-0.28125 0.25781,-0.17969 0.46094,-0.5 0.60938,-0.96875 L 4.89071,0.40687 Z"
         id="path23" />
    </symbol>
    <symbol
       id="g"
       overflow="visible">
      <path
         d="m 5.5156,-2.6406 h 6.125 V 0 H 1.5156 v -2.6406 l 5.0938,-4.5 c 0.44531,-0.40625 0.78125,-0.80078 1,-1.1875 0.21875,-0.39453 0.32812,-0.80469 0.32812,-1.2344 0,-0.65625 -0.21875,-1.1797 -0.65625,-1.5781 -0.4375,-0.39453 -1.0234,-0.59375 -1.75,-0.59375 -0.5625,0 -1.1797,0.12109 -1.8438,0.35938 -0.66797,0.24219 -1.3828,0.59375 -2.1406,1.0625 v -3.0625 c 0.8125,-0.26953 1.6133,-0.47266 2.4062,-0.60938 0.78906,-0.13281 1.5664,-0.20312 2.3281,-0.20312 1.6641,0 2.957,0.37109 3.875,1.1094 0.92578,0.73047 1.3906,1.75 1.3906,3.0625 0,0.76172 -0.19922,1.4688 -0.59375,2.125 -0.38672,0.65625 -1.2109,1.5391 -2.4688,2.6406 z"
         id="path26" />
    </symbol>
    <symbol
       id="f"
       overflow="visible">
      <path
         d="m 8.7969,-6.9844 c 0,-1.7383 -0.16797,-2.9609 -0.5,-3.6719 -0.32422,-0.71875 -0.87109,-1.0781 -1.6406,-1.0781 -0.77344,0 -1.3242,0.35938 -1.6562,1.0781 -0.32422,0.71094 -0.48438,1.9336 -0.48438,3.6719 0,1.7617 0.16016,3.0078 0.48438,3.7344 0.33203,0.71875 0.88281,1.0781 1.6562,1.0781 0.76953,0 1.3164,-0.35938 1.6406,-1.0781 0.33203,-0.72656 0.5,-1.9727 0.5,-3.7344 z m 3.5938,0.03125 c 0,2.3047 -0.5,4.0859 -1.5,5.3438 -0.99219,1.25 -2.4023,1.875 -4.2344,1.875 -1.8359,0 -3.25,-0.625 -4.25,-1.875 -0.99219,-1.2578 -1.4844,-3.0391 -1.4844,-5.3438 0,-2.3203 0.49219,-4.1094 1.4844,-5.3594 1,-1.25 2.4141,-1.875 4.25,-1.875 1.832,0 3.2422,0.625 4.2344,1.875 1,1.25 1.5,3.0391 1.5,5.3594 z"
         id="path29" />
    </symbol>
    <symbol
       id="v"
       overflow="visible">
      <path
         d="m 1.2812,-13.938 h 10.5 v 2.0156 L 6.3437,-4e-4 h -3.5 l 5.1562,-11.297 H 1.2811 Z"
         id="path32" />
    </symbol>
    <symbol
       id="e"
       overflow="visible">
      <path
         d="m 1.5,-4.0781 v -6.375 h 3.3594 v 1.0469 c 0,0.5625 -0.00781,1.2734 -0.015625,2.125 v 1.7188 c 0,0.83594 0.019531,1.4375 0.0625,1.8125 0.039062,0.375 0.11328,0.64844 0.21875,0.8125 0.13281,0.21875 0.3125,0.38672 0.53125,0.5 0.22656,0.11719 0.48438,0.17188 0.76562,0.17188 0.69531,0 1.2422,-0.26562 1.6406,-0.79688 0.40625,-0.53125 0.60938,-1.2734 0.60938,-2.2344 v -5.1562 h 3.3438 V 0 h -3.3438 v -1.5156 c -0.51172,0.61719 -1.0469,1.0703 -1.6094,1.3594 -0.5625,0.28125 -1.1836,0.42188 -1.8594,0.42188 -1.2109,0 -2.1328,-0.36719 -2.7656,-1.1094 -0.625,-0.73828 -0.9375,-1.8164 -0.9375,-3.2344 z"
         id="path35" />
    </symbol>
    <symbol
       id="u"
       overflow="visible">
      <path
         d="M 1.6094,-14.531 H 4.9532 V 0 H 1.6094 Z"
         id="path38" />
    </symbol>
    <symbol
       id="t"
       overflow="visible">
      <path
         d="M 1.6094,-10.453 H 4.9532 V 0 H 1.6094 Z m 0,-4.0781 h 3.3438 v 2.7344 H 1.6094 Z"
         id="path41" />
    </symbol>
    <symbol
       id="s"
       overflow="visible">
      <path
         d="m 8.4844,-14.531 v 2.1875 H 6.6406 c -0.46875,0 -0.79688,0.08984 -0.98438,0.26562 -0.1875,0.16797 -0.28125,0.46484 -0.28125,0.89062 v 0.73438 h 2.8594 v 2.3906 h -2.8594 v 8.0625 h -3.3438 v -8.0625 h -1.6719 v -2.3906 h 1.6719 v -0.73438 c 0,-1.1328 0.31641,-1.9727 0.95312,-2.5156 0.63281,-0.55078 1.6172,-0.82812 2.9531,-0.82812 z"
         id="path44" />
    </symbol>
    <symbol
       id="d"
       overflow="visible">
      <path
         d="m 6.5781,-8.3281 c -0.74219,0 -1.3047,0.27344 -1.6875,0.8125 -0.38672,0.53125 -0.57812,1.2969 -0.57812,2.2969 0,1 0.19141,1.7656 0.57812,2.2969 0.38281,0.53125 0.94531,0.79688 1.6875,0.79688 0.72656,0 1.2852,-0.26562 1.6719,-0.79688 0.38281,-0.53125 0.57812,-1.2969 0.57812,-2.2969 0,-1 -0.19531,-1.7656 -0.57812,-2.2969 C 7.86328,-8.05466 7.30469,-8.3281 6.5781,-8.3281 Z m 0,-2.3906 c 1.8008,0 3.207,0.49219 4.2188,1.4688 1.0078,0.96875 1.5156,2.3125 1.5156,4.0312 0,1.7187 -0.50781,3.0625 -1.5156,4.0312 -1.0117,0.96875 -2.418,1.4531 -4.2188,1.4531 -1.8047,0 -3.2148,-0.48438 -4.2344,-1.4531 C 1.332,-2.15625 0.8281,-3.5 0.8281,-5.2187 c 0,-1.7187 0.50391,-3.0625 1.5156,-4.0312 1.0195,-0.97656 2.4297,-1.4688 4.2344,-1.4688 z"
         id="path47" />
    </symbol>
    <symbol
       id="r"
       overflow="visible">
      <path
         d="m 11.297,-8.7188 c 0.42578,-0.64453 0.92969,-1.1406 1.5156,-1.4844 0.58203,-0.34375 1.2227,-0.51562 1.9219,-0.51562 1.1953,0 2.1094,0.375 2.7344,1.125 0.63281,0.74219 0.95312,1.8125 0.95312,3.2188 v 6.375 h -3.375 v -5.4531 c 0.0078,-0.082031 0.01563,-0.16406 0.01563,-0.25 0.0078,-0.09375 0.01563,-0.21875 0.01563,-0.375 0,-0.73828 -0.10938,-1.2734 -0.32812,-1.6094 -0.21875,-0.33203 -0.57422,-0.5 -1.0625,-0.5 -0.63672,0 -1.125,0.26172 -1.4688,0.78125 -0.34375,0.52344 -0.52344,1.2773 -0.53125,2.2656 V -7e-5 H 8.3282 v -5.4531 c 0,-1.1562 -0.10547,-1.8984 -0.3125,-2.2344 -0.19922,-0.33203 -0.55469,-0.5 -1.0625,-0.5 -0.63672,0 -1.1328,0.26562 -1.4844,0.79688 -0.34375,0.52344 -0.51562,1.2734 -0.51562,2.25 V -9e-5 h -3.3594 v -10.453 h 3.3594 v 1.5312 c 0.40625,-0.59375 0.875,-1.0391 1.4062,-1.3438 0.53125,-0.30078 1.1172,-0.45312 1.7656,-0.45312 0.71875,0 1.3516,0.17969 1.9062,0.53125 0.5625,0.34375 0.98438,0.83594 1.2656,1.4688 z"
         id="path50" />
    </symbol>
    <symbol
       id="q"
       overflow="visible">
      <path
         d="M 12.125,-6.375 V 0 H 8.7656 v -4.8594 c 0,-0.91406 -0.023437,-1.5391 -0.0625,-1.875 -0.042969,-0.34375 -0.11719,-0.59766 -0.21875,-0.76562 -0.125,-0.21875 -0.30469,-0.38281 -0.53125,-0.5 -0.21875,-0.125 -0.47656,-0.1875 -0.76562,-0.1875 -0.69922,0 -1.2461,0.27344 -1.6406,0.8125 -0.39844,0.53125 -0.59375,1.2773 -0.59375,2.2344 V -2e-5 h -3.3438 v -14.531 h 3.3438 v 5.6094 c 0.5,-0.61328 1.0312,-1.0664 1.5938,-1.3594 0.57031,-0.28906 1.2031,-0.4375 1.8906,-0.4375 1.207,0 2.125,0.375 2.75,1.125 0.625,0.74219 0.9375,1.8125 0.9375,3.2188 z"
         id="path53" />
    </symbol>
    <symbol
       id="p"
       overflow="visible">
      <path
         d="m 1.75,-13.938 h 4.0156 l 5.0781,9.5625 v -9.5625 h 3.4062 V 0 H 10.2343 L 5.1718,-9.5625 V 0 H 1.7499 Z"
         id="path56" />
    </symbol>
    <symbol
       id="o"
       overflow="visible">
      <path
         d="M 12.125,-6.375 V 0 H 8.7656 v -4.875 c 0,-0.90625 -0.023437,-1.5234 -0.0625,-1.8594 -0.042969,-0.34375 -0.11719,-0.59766 -0.21875,-0.76562 -0.125,-0.21875 -0.30469,-0.38281 -0.53125,-0.5 -0.21875,-0.125 -0.47656,-0.1875 -0.76562,-0.1875 -0.69922,0 -1.2461,0.27344 -1.6406,0.8125 -0.39844,0.53125 -0.59375,1.2773 -0.59375,2.2344 V -2e-5 h -3.3438 v -10.453 h 3.3438 v 1.5312 c 0.5,-0.61328 1.0312,-1.0664 1.5938,-1.3594 0.57031,-0.28906 1.2031,-0.4375 1.8906,-0.4375 1.207,0 2.125,0.375 2.75,1.125 0.625,0.74219 0.9375,1.8125 0.9375,3.2188 z"
         id="path59" />
    </symbol>
    <symbol
       id="n"
       overflow="visible">
      <path
         d="m 1.75,-13.938 h 5.9688 c 1.7812,0 3.1445,0.39844 4.0938,1.1875 0.94531,0.78125 1.4219,1.9023 1.4219,3.3594 0,1.4609 -0.47656,2.5859 -1.4219,3.375 -0.94922,0.78125 -2.3125,1.1719 -4.0938,1.1719 H 5.3438 V -4e-4 H 1.75 Z m 3.5938,2.5938 v 3.9062 h 2 c 0.69531,0 1.2344,-0.16406 1.6094,-0.5 0.38281,-0.34375 0.57812,-0.82812 0.57812,-1.4531 0,-0.62498 -0.19531,-1.1016 -0.57812,-1.4375 -0.375,-0.34375 -0.91406,-0.51562 -1.6094,-0.51562 z"
         id="path62" />
    </symbol>
    <symbol
       id="m"
       overflow="visible">
      <path
         d="m 1.6094,-10.453 h 3.3438 v 10.266 c 0,1.4062 -0.33984,2.4727 -1.0156,3.2031 C 3.26963,3.75438 2.297,4.1255 1.0157,4.1255 H -0.6405 V 1.938 h 0.57812 c 0.63281,0 1.0703,-0.14844 1.3125,-0.4375 C 1.4884,1.21925 1.6095,0.65675 1.6095,-0.187 Z m 0,-4.0781 h 3.3438 v 2.7344 H 1.6094 Z"
         id="path65" />
    </symbol>
    <symbol
       id="l"
       overflow="visible">
      <path
         d="m 10.062,-10.125 v 2.7188 C 9.60106,-7.7187 9.14403,-7.94526 8.687,-8.0937 8.22606,-8.24995 7.75341,-8.32808 7.2651,-8.32808 c -0.9375,0 -1.668,0.27734 -2.1875,0.82812 -0.51172,0.54297 -0.76562,1.3047 -0.76562,2.2812 0,0.98047 0.25391,1.7422 0.76562,2.2812 0.51953,0.54297 1.25,0.8125 2.1875,0.8125 0.51953,0 1.0156,-0.078125 1.4844,-0.23438 0.4688,-0.156255 0.90625,-0.38281 1.3125,-0.6875 v 2.7344 C 9.53075,-0.11332 8.9917,0.03121 8.4526,0.12496 7.92135,0.21871 7.3823,0.26558 6.8432,0.26558 c -1.8867,0 -3.3594,-0.48438 -4.4219,-1.4531 -1.0625,-0.96872 -1.5938,-2.3125 -1.5938,-4.0312 0,-1.7266 0.53125,-3.0781 1.5938,-4.0469 1.06255,-0.9688 2.5352,-1.4531 4.4219,-1.4531 0.55078,0 1.0938,0.05469 1.625,0.15625 0.53125,0.09375 1.0625,0.24219 1.5938,0.4375 z"
         id="path68" />
    </symbol>
  </defs>
  <path
     d="m 351.912,70.386853 c 49.727,-103.28 218.03,-68.8520004 306.01,-45.902 7.6484,15.301 30.602,53.551 42.078,80.327997 v 428.41 c -164.48,-49.727 -248.63,-34.426 -348.09,11.477 -103.28,-45.902 -187.43,-61.203 -351.91,-11.477 v -428.41 C 11.477,78.035853 34.426,39.785853 42.078,24.484853 c 87.977,-22.9490004 260.11,-57.379 309.84,45.902 z M 65.022,449.07685 c 84.152,-19.125 202.73,-26.777 275.41,34.426 v -355.74 c 0,-145.359997 -183.61,-110.929997 -275.41,-87.976997 V 449.07585 Z M 634.972,39.786853 c -91.805,-22.949 -275.41,-57.379 -275.41,87.976997 v 355.74 c 72.676,-61.203 191.26,-53.551 275.41,-34.426 V 39.787853 Z"
     id="path73" />
  <path
     style="opacity:1;fill:#ffffff;stroke-width:1.10716"
     d="m 461.68446,722.28414 c -12.26833,-5.5931 -49.68911,-20.18736 -64.76868,-25.26006 -34.75663,-11.69197 -66.98682,-19.26278 -102.73136,-24.1314 -15.72559,-2.14192 -22.95414,-2.44871 -58.35998,-2.47692 -42.30101,-0.0337 -52.22099,0.6054 -87.4654,5.63517 -35.9387,5.12886 -83.755923,15.72503 -127.04767,28.15342 -10.504922,3.0158 -19.5974487,5.48327 -20.2056143,5.48327 C 0.37238483,709.68762 0,613.76312 0,424.8504 V 140.01316 L 11.393585,117.33755 C 17.660057,104.86595 30.420367,80.840508 39.749829,63.94767 56.092113,34.356725 56.859805,33.193777 60.740585,32.149514 111.11921,18.593332 176.02692,6.7590712 221.98497,2.7507251 248.01742,0.48024019 292.06044,0.48310695 313.64532,2.7566927 386.8748,10.470121 437.0613,38.092056 464.01154,85.51612 c 2.67819,4.712789 5.11855,8.572157 5.42302,8.576372 0.30447,0.0042 2.27919,-3.329287 4.38828,-7.407781 5.19454,-10.045052 15.42753,-23.692821 24.42434,-32.574801 24.37202,-24.060978 57.18341,-39.782169 100.17117,-47.9958555 32.71972,-6.25176804 85.36199,-6.897568 132.30526,-1.623082 40.75542,4.5792272 93.98311,14.9618945 141.86914,27.6731915 3.8847,1.031189 4.63196,2.162675 20.99076,31.783506 9.32946,16.892838 22.08976,40.91828 28.35624,53.38988 l 11.39358,22.67561 V 424.8504 c 0,164.058 -0.41466,284.83722 -0.97792,284.83722 -0.53785,0 -8.88305,-2.27121 -18.54487,-5.04714 -64.6957,-18.58766 -121.87356,-29.58548 -175.76162,-33.80673 -24.35682,-1.90795 -77.30392,-0.70232 -99.21934,2.25928 -50.99353,6.89116 -100.78937,21.68273 -155.46875,46.18112 -7.25948,3.25252 -13.73635,5.88497 -14.39304,5.84989 -0.65667,-0.0351 -3.93418,-1.31303 -7.28333,-2.8399 z M 452.76969,145.03756 C 442.58176,60.544027 373.84679,19.393217 252.96903,25.419286 207.83898,27.669135 166.25417,33.957352 108.77817,47.223 L 86.358244,52.397594 V 325.68476 c 0,184.496 0.365826,273.28717 1.125961,273.28717 0.619279,0 6.722481,-1.2078 13.562675,-2.68401 50.4482,-10.88738 99.63864,-15.67515 150.83133,-14.6806 34.00983,0.66073 53.25664,2.57746 79.76854,7.9439 44.70269,9.04853 85.87146,27.09694 115.64467,50.69867 l 6.08936,4.82715 0.32856,-244.76074 c 0.24012,-178.8705 -0.0128,-247.59222 -0.93965,-255.27874 z m 47.41527,485.06325 c 35.16697,-23.51054 78.00071,-38.2947 132.00168,-45.56066 21.94029,-2.95214 73.32857,-4.13561 99.09054,-2.28207 33.81817,2.43318 71.7026,7.69395 101.00928,14.02652 6.84018,1.47803 12.94338,2.68733 13.56267,2.68733 0.76013,0 1.12596,-88.79117 1.12596,-273.28717 V 52.397594 L 824.55516,47.223 C 685.03435,15.021139 589.07343,17.526434 533.00257,54.834697 509.92192,70.192042 492.87202,94.054121 485.04246,121.95703 479.2172,142.717 479.41253,133.11851 479.4055,398.9564 l -0.007,246.72232 5.259,-4.35668 c 2.89245,-2.39617 9.87959,-7.44573 15.52699,-11.22123 z"
     id="path552"
     transform="scale(0.75)" />
</svg>
